<svg width="16.000000" height="16.000000" viewBox="0 0 16 16" fill="none" xmlns="http://www.w3.org/2000/svg" xmlns:xlink="http://www.w3.org/1999/xlink">
	<desc>
			Created with Pixso.
	</desc>
	<defs>
		<clipPath id="clip206_1622">
			<rect id="Linear / Like / Star" rx="5.000000" width="16.000000" height="16.000000" transform="translate(0.000000 -0.500000)" fill="white" fill-opacity="0"/>
		</clipPath>
	</defs>
	<g clip-path="url(#clip206_1622)">
		<path id="Vector" d="M6.1 3.1C6.94 1.59 7.36 0.83 8 0.83C8.63 0.83 9.05 1.59 9.89 3.1L10.11 3.49C10.35 3.92 10.47 4.14 10.66 4.28C10.85 4.42 11.08 4.47 11.54 4.58L11.97 4.68C13.61 5.05 14.43 5.23 14.62 5.86C14.82 6.49 14.26 7.14 13.14 8.45L12.85 8.79C12.53 9.16 12.38 9.34 12.3 9.57C12.23 9.8 12.26 10.05 12.3 10.55L12.35 11C12.52 12.74 12.6 13.61 12.09 14C11.58 14.39 10.81 14.04 9.28 13.33L8.88 13.15C8.44 12.95 8.23 12.85 8 12.85C7.76 12.85 7.55 12.95 7.11 13.15L6.71 13.33C5.18 14.04 4.41 14.39 3.9 14C3.39 13.61 3.47 12.74 3.64 11L3.68 10.55C3.73 10.05 3.76 9.8 3.69 9.57C3.61 9.34 3.46 9.16 3.14 8.79L2.85 8.45C1.73 7.14 1.17 6.49 1.37 5.86C1.56 5.23 2.38 5.05 4.02 4.68L4.45 4.58C4.91 4.47 5.14 4.42 5.33 4.28C5.52 4.14 5.64 3.92 5.88 3.49L6.1 3.1Z" fill="#CCBE43" fill-opacity="1.000000" fill-rule="nonzero"/>
		<path id="Vector" d="M10.11 3.49C10.35 3.92 10.47 4.14 10.66 4.28C10.85 4.42 11.08 4.47 11.54 4.58L11.97 4.68C13.61 5.05 14.43 5.23 14.62 5.86C14.82 6.49 14.26 7.14 13.14 8.45L12.85 8.79C12.53 9.16 12.38 9.34 12.3 9.57C12.23 9.8 12.26 10.05 12.3 10.55L12.35 11C12.52 12.74 12.6 13.61 12.09 14C11.58 14.39 10.81 14.04 9.28 13.33L8.88 13.15C8.44 12.95 8.23 12.85 8 12.85C7.76 12.85 7.55 12.95 7.11 13.15L6.71 13.33C5.18 14.04 4.41 14.39 3.9 14C3.39 13.61 3.47 12.74 3.64 11L3.68 10.55C3.73 10.05 3.76 9.8 3.69 9.57C3.61 9.34 3.46 9.16 3.14 8.79L2.85 8.45C1.73 7.14 1.17 6.49 1.37 5.86C1.56 5.23 2.38 5.05 4.02 4.68L4.45 4.58C4.91 4.47 5.14 4.42 5.33 4.28C5.52 4.14 5.64 3.92 5.88 3.49L6.1 3.1C6.94 1.59 7.36 0.83 8 0.83C8.63 0.83 9.05 1.59 9.89 3.1L10.11 3.49Z" stroke="#CCBE43" stroke-opacity="1.000000" stroke-width="1.500000"/>
	</g>
</svg>
