<svg width="24.000000" height="24.000000" viewBox="0 0 24 24" fill="none" xmlns="http://www.w3.org/2000/svg" xmlns:xlink="http://www.w3.org/1999/xlink">
	<desc>
			Created with Pixso.
	</desc>
	<defs>
		<clipPath id="clip206_1740">
			<rect id="Linear / Time / Calendar" rx="5.000000" width="24.000000" height="24.000000" transform="translate(0.000000 -0.733398)" fill="white" fill-opacity="0"/>
		</clipPath>
	</defs>
	<g clip-path="url(#clip206_1740)">
		<path id="Vector" d="M14 3.26C17.77 3.26 19.65 3.26 20.82 4.43C22 5.6 22 7.49 22 11.26L22 13.26C22 17.03 22 18.92 20.82 20.09C19.65 21.26 17.77 21.26 14 21.26L10 21.26C6.22 21.26 4.34 21.26 3.17 20.09C2 18.92 2 17.03 2 13.26L2 11.26C2 7.49 2 5.6 3.17 4.43C4.34 3.26 6.22 3.26 10 3.26L14 3.26Z" stroke="#AFB2BF" stroke-opacity="1.000000" stroke-width="1.500000"/>
		<path id="Vector" d="M7 3.26L7 " stroke="#AFB2BF" stroke-opacity="1.000000" stroke-width="1.500000" stroke-linecap="round"/>
		<path id="Vector" d="M17 3.26L17 " stroke="#AFB2BF" stroke-opacity="1.000000" stroke-width="1.500000" stroke-linecap="round"/>
		<path id="Vector" d="M2.5 8.26L21.5 " stroke="#AFB2BF" stroke-opacity="1.000000" stroke-width="1.500000" stroke-linecap="round"/>
		<path id="Vector" d="M17 13.26C17.55 13.26 18 12.81 18 12.26C18 11.71 17.55 11.26 17 11.26C16.44 11.26 16 11.71 16 12.26C16 12.81 16.44 13.26 17 13.26ZM17 17.26C17.55 17.26 18 16.81 18 16.26C18 15.71 17.55 15.26 17 15.26C16.44 15.26 16 15.71 16 16.26C16 16.81 16.44 17.26 17 17.26Z" fill="#AFB2BF" fill-opacity="1.000000" fill-rule="evenodd"/>
		<path id="Vector" d="M12 13.26C12.55 13.26 13 12.81 13 12.26C13 11.71 12.55 11.26 12 11.26C11.44 11.26 11 11.71 11 12.26C11 12.81 11.44 13.26 12 13.26ZM12 17.26C12.55 17.26 13 16.81 13 16.26C13 15.71 12.55 15.26 12 15.26C11.44 15.26 11 15.71 11 16.26C11 16.81 11.44 17.26 12 17.26Z" fill="#AFB2BF" fill-opacity="1.000000" fill-rule="evenodd"/>
		<path id="Vector" d="M7 13.26C7.55 13.26 8 12.81 8 12.26C8 11.71 7.55 11.26 7 11.26C6.44 11.26 6 11.71 6 12.26C6 12.81 6.44 13.26 7 13.26ZM7 17.26C7.55 17.26 8 16.81 8 16.26C8 15.71 7.55 15.26 7 15.26C6.44 15.26 6 15.71 6 16.26C6 16.81 6.44 17.26 7 17.26Z" fill="#AFB2BF" fill-opacity="1.000000" fill-rule="evenodd"/>
	</g>
</svg>
