<svg width="24.000000" height="24.000000" viewBox="0 0 24 24" fill="none" xmlns="http://www.w3.org/2000/svg" xmlns:xlink="http://www.w3.org/1999/xlink">
	<desc>
			Created with Pixso.
	</desc>
	<defs>
		<clipPath id="clip206_1743">
			<rect id="Linear / Security / Eye" width="24.000000" height="24.000000" transform="translate(0.000000 -0.733398)" fill="white" fill-opacity="0"/>
		</clipPath>
	</defs>
	<g clip-path="url(#clip206_1743)">
		<path id="Vector" d="M12 3.26C16.18 3.26 19.02 5.76 20.72 7.97C21.57 9.07 22 9.62 22 11.26C22 12.9 21.57 13.45 20.72 14.56C19.02 16.76 16.18 19.26 12 19.26C7.81 19.26 4.97 16.76 3.27 14.56C2.42 13.45 2 12.9 2 11.26C2 9.62 2.42 9.07 3.27 7.97C4.97 5.76 7.81 3.26 12 3.26Z" stroke="#AFB2BF" stroke-opacity="1.000000" stroke-width="1.500000"/>
		<path id="Vector" d="M12 14.26C10.34 14.26 9 12.92 9 11.26C9 9.6 10.34 8.26 12 8.26C13.65 8.26 15 9.6 15 11.26C15 12.92 13.65 14.26 12 14.26Z" stroke="#AFB2BF" stroke-opacity="1.000000" stroke-width="1.500000"/>
	</g>
</svg>
