<svg width="134.000000" height="52.000000" viewBox="0 0 134 52" fill="none" xmlns="http://www.w3.org/2000/svg" xmlns:xlink="http://www.w3.org/1999/xlink">
	<desc>
			Created with Pixso.
	</desc>
	<defs>
		<clipPath id="clip206_1839">
			<rect rx="5.000000" width="16.000000" height="16.000000" transform="translate(0.000000 36.000000)" fill="white" fill-opacity="0"/>
		</clipPath>
		<clipPath id="clip206_1840">
			<rect rx="5.000000" width="16.000000" height="16.000000" transform="translate(24.000000 36.000000)" fill="white" fill-opacity="0"/>
		</clipPath>
		<clipPath id="clip206_1841">
			<rect rx="5.000000" width="16.000000" height="16.000000" transform="translate(48.000000 36.000000)" fill="white" fill-opacity="0"/>
		</clipPath>
		<clipPath id="clip206_1842">
			<rect rx="5.000000" width="16.000000" height="16.000000" transform="translate(72.000000 36.000000)" fill="white" fill-opacity="0"/>
		</clipPath>
		<clipPath id="clip206_1843">
			<rect rx="5.000000" width="16.000000" height="16.000000" transform="translate(96.000000 36.000000)" fill="white" fill-opacity="0"/>
		</clipPath>
	</defs>
	<path d="M1.95 21.92Q2.09 22 2.27 22L5.37 22Q5.53 22 5.66 21.93Q5.74 21.89 5.81 21.82Q5.92 21.71 5.97 21.57Q6 21.49 6 21.4L6 15.42L7.6 15.42L11.32 21.54Q11.42 21.64 11.6 21.82Q11.78 22 12.16 22L15.72 22Q15.88 22 16 21.92Q16.06 21.89 16.11 21.84Q16.17 21.78 16.21 21.71Q16.27 21.59 16.27 21.44Q16.27 21.27 16.2 21.18L11.3 13.28L15.76 5.99Q15.86 5.84 15.86 5.7Q15.86 5.63 15.84 5.57Q15.81 5.45 15.71 5.35Q15.64 5.28 15.56 5.24Q15.47 5.2 15.35 5.2L11.88 5.2Q11.54 5.2 11.32 5.33Q11.12 5.45 11 5.63Q10.99 5.64 10.99 5.65L7.46 11.58L6 11.58L6 5.79Q6 5.63 5.93 5.51Q5.88 5.43 5.81 5.37Q5.75 5.3 5.67 5.26Q5.54 5.2 5.37 5.2L2.27 5.2Q2.1 5.2 1.97 5.27Q1.9 5.31 1.84 5.37Q1.79 5.41 1.76 5.47Q1.68 5.61 1.68 5.79L1.68 21.4Q1.68 21.58 1.76 21.72Q1.79 21.78 1.84 21.83Q1.89 21.88 1.95 21.92ZM93.26 21.93Q93.38 22 93.55 22L96.72 22Q96.89 22 97.02 21.92Q97.09 21.88 97.15 21.82Q97.24 21.72 97.28 21.6Q97.32 21.5 97.32 21.4L97.32 8.96L101.59 8.96Q101.75 8.96 101.87 8.9Q101.95 8.85 102.01 8.78Q102.11 8.68 102.15 8.56Q102.18 8.46 102.18 8.36L102.18 5.79Q102.18 5.62 102.11 5.48Q102.07 5.42 102.01 5.37Q101.96 5.31 101.9 5.27Q101.77 5.2 101.59 5.2L88.67 5.2Q88.5 5.2 88.37 5.27Q88.3 5.31 88.24 5.37Q88.19 5.41 88.16 5.47Q88.07 5.61 88.07 5.79L88.07 8.36Q88.07 8.47 88.11 8.57Q88.15 8.68 88.24 8.78Q88.31 8.86 88.39 8.9Q88.52 8.96 88.67 8.96L92.95 8.96L92.95 21.4Q92.95 21.51 92.99 21.61Q93.03 21.72 93.11 21.82Q93.18 21.89 93.26 21.93ZM31.59 26.49Q31.71 26.55 31.87 26.55L34.8 26.55Q34.96 26.55 35.08 26.49Q35.16 26.44 35.22 26.37Q35.31 26.28 35.36 26.17Q35.39 26.07 35.39 25.96L35.39 20.63Q35.65 20.97 35.97 21.25Q36.36 21.59 36.84 21.82Q37.72 22.24 38.9 22.24Q40.1 22.24 41.02 21.84Q41.67 21.56 42.19 21.12Q42.4 20.94 42.6 20.72Q43.25 20 43.6 18.97Q43.96 17.94 44.01 16.65Q44.04 16.16 44.04 15.75Q44.04 15.34 44.01 14.86Q43.96 13.52 43.6 12.49Q43.25 11.46 42.58 10.74Q42.28 10.41 41.92 10.15Q41.5 9.85 41.01 9.65Q40.1 9.27 38.9 9.27Q37.58 9.27 36.67 9.77Q35.76 10.26 35.18 10.98L35.18 10.11Q35.18 9.95 35.11 9.83Q35.07 9.75 35 9.68Q34.9 9.59 34.79 9.55Q34.69 9.51 34.58 9.51L31.87 9.51Q31.69 9.51 31.56 9.59Q31.49 9.63 31.43 9.68Q31.39 9.73 31.35 9.79Q31.27 9.92 31.27 10.11L31.27 25.96Q31.27 26.08 31.31 26.18Q31.35 26.28 31.43 26.37Q31.5 26.45 31.59 26.49ZM49 21.59Q50.37 22.24 52.15 22.24Q53.51 22.24 54.55 21.91Q55.58 21.58 56.31 21.08Q57.04 20.58 57.5 19.98Q57.96 19.38 58.17 18.83Q58.39 18.27 58.41 17.89Q58.43 17.75 58.38 17.64Q58.33 17.54 58.24 17.46Q58.12 17.35 57.98 17.31Q57.9 17.29 57.81 17.29L54.76 17.29Q54.5 17.29 54.35 17.41Q54.21 17.53 54.09 17.77Q53.83 18.49 53.39 18.82Q52.96 19.14 52.22 19.14Q51.47 19.14 51 18.78Q50.87 18.68 50.75 18.54Q50.25 17.94 50.18 16.62Q50.16 15.88 50.18 14.92Q50.23 13.62 50.74 13Q50.88 12.83 51.05 12.71Q51.52 12.37 52.22 12.37Q52.92 12.37 53.36 12.68Q53.8 13 54.09 13.74Q54.21 13.98 54.35 14.1Q54.5 14.22 54.76 14.22L57.81 14.22Q57.89 14.22 57.96 14.2Q58.11 14.16 58.24 14.04Q58.36 13.93 58.4 13.79Q58.42 13.71 58.41 13.62Q58.39 13.07 58.01 12.33Q57.65 11.6 56.91 10.91Q56.18 10.21 54.99 9.74Q53.8 9.27 52.15 9.27Q50.37 9.27 48.99 9.92Q48.13 10.33 47.5 10.96Q47.11 11.34 46.82 11.81Q46.03 13.04 45.96 14.79Q45.93 15.18 45.93 15.77Q45.93 16.35 45.96 16.74Q46.03 18.47 46.83 19.7Q47.17 20.22 47.61 20.64Q48.21 21.21 49 21.59ZM62.21 21.03Q63.82 22.24 66.33 22.24Q67.8 22.24 68.9 21.88Q70 21.51 70.73 20.95Q71.47 20.39 71.85 19.82Q72.23 19.24 72.26 18.83Q72.28 18.67 72.21 18.55Q72.18 18.49 72.13 18.44Q72.08 18.4 72.03 18.37Q71.9 18.3 71.73 18.3L68.75 18.3Q68.47 18.3 68.33 18.36Q68.2 18.42 67.99 18.68Q67.87 18.83 67.65 19.03Q67.43 19.24 67.11 19.39Q66.79 19.55 66.31 19.55Q65.74 19.55 65.33 19.29Q65.27 19.26 65.21 19.21Q65.14 19.16 65.08 19.1Q64.73 18.79 64.54 18.3Q64.32 17.72 64.29 17.03L64.29 16.86L71.97 16.86Q72.15 16.86 72.29 16.78Q72.35 16.74 72.4 16.69Q72.46 16.63 72.5 16.56Q72.57 16.43 72.57 16.26L72.57 15.68Q72.57 13.83 71.88 12.4Q71.55 11.72 71.07 11.18Q70.53 10.56 69.8 10.12Q68.42 9.27 66.31 9.27Q64.46 9.27 63.07 9.98Q62.44 10.31 61.93 10.78Q61.34 11.32 60.92 12.05Q60.14 13.41 60.07 15.3L60.07 16.14Q60.13 18.91 61.54 20.43Q61.67 20.57 61.82 20.7Q62 20.87 62.21 21.03ZM77.42 21.59Q78.79 22.24 80.57 22.24Q81.93 22.24 82.96 21.91Q83.99 21.58 84.73 21.08Q85.46 20.58 85.91 19.98Q86.37 19.38 86.59 18.83Q86.81 18.27 86.83 17.89Q86.84 17.75 86.79 17.64Q86.75 17.54 86.66 17.46Q86.54 17.35 86.39 17.31Q86.31 17.29 86.23 17.29L83.18 17.29Q82.91 17.29 82.77 17.41Q82.63 17.53 82.5 17.77Q82.24 18.49 81.81 18.82Q81.38 19.14 80.64 19.14Q79.89 19.14 79.42 18.78Q79.28 18.68 79.17 18.54Q78.67 17.94 78.6 16.62Q78.57 15.88 78.6 14.92Q78.64 13.62 79.16 13Q79.3 12.83 79.47 12.71Q79.93 12.37 80.64 12.37Q81.33 12.37 81.77 12.68Q82.22 13 82.5 13.74Q82.63 13.98 82.77 14.1Q82.91 14.22 83.18 14.22L86.23 14.22Q86.3 14.22 86.37 14.2Q86.53 14.16 86.66 14.04Q86.78 13.93 86.82 13.79Q86.84 13.71 86.83 13.62Q86.81 13.07 86.43 12.33Q86.06 11.6 85.33 10.91Q84.6 10.21 83.41 9.74Q82.22 9.27 80.57 9.27Q78.79 9.27 77.41 9.92Q76.54 10.33 75.91 10.96Q75.53 11.34 75.23 11.81Q74.44 13.04 74.37 14.79Q74.35 15.18 74.35 15.77Q74.35 16.35 74.37 16.74Q74.44 18.47 75.25 19.7Q75.58 20.22 76.02 20.64Q76.63 21.21 77.42 21.59ZM106.61 21.59Q107.99 22.24 110.01 22.24Q112.05 22.24 113.43 21.59Q114.42 21.12 115.08 20.36Q115.34 20.07 115.54 19.73Q116.27 18.51 116.37 16.83Q116.4 16.35 116.4 15.74Q116.4 15.13 116.37 14.68Q116.27 12.97 115.51 11.77Q115.29 11.43 115.02 11.13Q114.34 10.39 113.36 9.92Q111.98 9.27 110.01 9.27Q108.07 9.27 106.69 9.92Q105.7 10.39 105.03 11.13Q104.76 11.43 104.54 11.77Q103.77 12.97 103.68 14.68Q103.65 15.13 103.65 15.74Q103.65 16.35 103.68 16.83Q103.77 18.51 104.5 19.73Q104.71 20.08 104.98 20.38Q105.63 21.13 106.61 21.59ZM22.75 16.97L25.6 10.02Q25.65 9.89 25.72 9.78Q25.78 9.72 25.84 9.66Q26.01 9.51 26.32 9.51L28.89 9.51Q28.99 9.51 29.08 9.55Q29.18 9.59 29.26 9.67Q29.37 9.78 29.4 9.91Q29.42 9.96 29.42 10.02Q29.42 10.07 29.41 10.14Q29.39 10.21 29.35 10.33L24.79 21.32Q24.31 22.5 23.8 23.46Q23.3 24.42 22.69 25.12Q22.22 25.67 21.63 26.01Q21.45 26.12 21.27 26.2Q20.46 26.58 19.41 26.58L18.23 26.58Q18.08 26.58 17.95 26.51Q17.87 26.47 17.8 26.4Q17.74 26.34 17.71 26.27Q17.63 26.13 17.63 25.96L17.63 24.03Q17.63 23.86 17.7 23.73Q17.74 23.65 17.8 23.59Q17.86 23.52 17.94 23.48Q18.07 23.41 18.23 23.41L19.08 23.41Q19.51 23.41 19.8 23.25Q20.08 23.1 20.31 22.72Q20.54 22.35 20.8 21.71L20.93 21.41L16.15 10.33Q16.08 10.16 16.08 10.04Q16.11 9.88 16.2 9.76Q16.23 9.71 16.26 9.67Q16.31 9.62 16.37 9.58Q16.49 9.51 16.65 9.51L19.34 9.51Q19.64 9.51 19.8 9.67Q19.8 9.67 19.8 9.67Q19.93 9.79 20 9.94Q20.02 9.98 20.04 10.02L22.75 16.97ZM119.08 21.93Q119.21 22 119.37 22L122.2 22Q122.37 22 122.49 21.93Q122.57 21.89 122.63 21.82Q122.73 21.72 122.77 21.6Q122.8 21.5 122.8 21.4L122.8 12.66L126.93 12.66L126.93 21.4Q126.93 21.49 126.96 21.57Q127 21.71 127.11 21.82Q127.22 21.92 127.35 21.97Q127.43 22 127.53 22L130.36 22Q130.51 22 130.64 21.94Q130.73 21.89 130.81 21.82Q130.92 21.71 130.96 21.57Q130.99 21.49 130.99 21.4L130.99 10.11Q130.99 9.95 130.92 9.83Q130.88 9.75 130.81 9.68Q130.74 9.62 130.65 9.58Q130.52 9.51 130.36 9.51L119.37 9.51Q119.2 9.51 119.07 9.59Q119 9.63 118.94 9.68Q118.89 9.73 118.86 9.79Q118.77 9.92 118.77 10.11L118.77 21.4Q118.77 21.51 118.81 21.61Q118.85 21.72 118.94 21.82Q119 21.89 119.08 21.93ZM68.35 14.48L64.29 14.48L64.29 14.44Q64.29 13.65 64.53 13.08Q64.73 12.61 65.08 12.32Q65.15 12.26 65.23 12.2Q65.29 12.16 65.37 12.12Q65.78 11.89 66.31 11.89Q66.88 11.89 67.32 12.14Q67.37 12.17 67.42 12.2Q67.55 12.29 67.65 12.38Q67.95 12.66 68.12 13.08Q68.35 13.65 68.35 14.44L68.35 14.48ZM111.41 18.85Q110.92 19.31 110.01 19.31Q109.2 19.31 108.71 18.91Q108.58 18.8 108.46 18.66Q107.95 18.01 107.9 16.72Q107.88 16.35 107.88 15.75Q107.88 15.16 107.9 14.79Q107.95 13.52 108.46 12.87Q108.59 12.7 108.75 12.58Q109.23 12.2 110.01 12.2Q110.89 12.2 111.38 12.64Q111.49 12.74 111.59 12.87Q112.08 13.52 112.15 14.79Q112.17 15.16 112.17 15.75Q112.17 16.35 112.15 16.72Q112.08 18.01 111.59 18.66Q111.51 18.77 111.41 18.85ZM38.87 18.68Q38.42 19.02 37.6 19.02Q36.86 19.02 36.38 18.7Q36.11 18.52 35.92 18.28Q35.76 18.09 35.66 17.86Q35.6 17.74 35.56 17.61Q35.41 17.2 35.39 16.74Q35.37 16.26 35.37 15.83Q35.37 15.4 35.39 14.94Q35.44 14.29 35.66 13.74Q35.77 13.46 35.94 13.24Q36.11 13.02 36.35 12.84Q36.84 12.49 37.6 12.49Q38.42 12.49 38.87 12.83Q39.01 12.93 39.12 13.04Q39.39 13.33 39.54 13.74Q39.74 14.31 39.79 15.01Q39.81 15.38 39.81 15.75Q39.81 16.13 39.79 16.5Q39.74 17.2 39.54 17.77Q39.39 18.17 39.13 18.46Q39.01 18.58 38.87 18.68Z" fill="#AFB2BF" fill-opacity="1.000000" fill-rule="evenodd"/>
	<g clip-path="url(#clip206_1839)">
		<path d="M6.1 39.6C6.94 38.09 7.36 37.33 8 37.33C8.63 37.33 9.05 38.09 9.89 39.6L10.11 39.99C10.35 40.42 10.47 40.64 10.66 40.78C10.85 40.92 11.08 40.97 11.54 41.08L11.97 41.18C13.61 41.55 14.43 41.73 14.62 42.36C14.82 42.99 14.26 43.64 13.14 44.95L12.85 45.29C12.53 45.66 12.38 45.84 12.3 46.07C12.23 46.3 12.26 46.55 12.3 47.05L12.35 47.5C12.52 49.24 12.6 50.11 12.09 50.5C11.58 50.89 10.81 50.54 9.28 49.83L8.88 49.65C8.44 49.45 8.23 49.34 8 49.34C7.76 49.34 7.55 49.45 7.11 49.65L6.71 49.83C5.18 50.54 4.41 50.89 3.9 50.5C3.39 50.11 3.47 49.24 3.64 47.5L3.68 47.05C3.73 46.55 3.76 46.3 3.69 46.07C3.61 45.84 3.46 45.66 3.14 45.29L2.85 44.95C1.73 43.64 1.17 42.99 1.37 42.36C1.56 41.73 2.38 41.55 4.02 41.18L4.45 41.08C4.91 40.97 5.14 40.92 5.33 40.78C5.52 40.64 5.64 40.42 5.88 39.99L6.1 39.6Z" fill="#CCBE43" fill-opacity="1.000000" fill-rule="nonzero"/>
		<path d="M10.11 39.99C10.35 40.42 10.47 40.64 10.66 40.78C10.85 40.92 11.08 40.97 11.54 41.08L11.97 41.18C13.61 41.55 14.43 41.73 14.62 42.36C14.82 42.99 14.26 43.64 13.14 44.95L12.85 45.29C12.53 45.66 12.38 45.84 12.3 46.07C12.23 46.3 12.26 46.55 12.3 47.05L12.35 47.5C12.52 49.24 12.6 50.11 12.09 50.5C11.58 50.89 10.81 50.54 9.28 49.83L8.88 49.65C8.44 49.45 8.23 49.34 8 49.34C7.76 49.34 7.55 49.45 7.11 49.65L6.71 49.83C5.18 50.54 4.41 50.89 3.9 50.5C3.39 50.11 3.47 49.24 3.64 47.5L3.68 47.05C3.73 46.55 3.76 46.3 3.69 46.07C3.61 45.84 3.46 45.66 3.14 45.29L2.85 44.95C1.73 43.64 1.17 42.99 1.37 42.36C1.56 41.73 2.38 41.55 4.02 41.18L4.45 41.08C4.91 40.97 5.14 40.92 5.33 40.78C5.52 40.64 5.64 40.42 5.88 39.99L6.1 39.6C6.94 38.09 7.36 37.33 8 37.33C8.63 37.33 9.05 38.09 9.89 39.6L10.11 39.99Z" stroke="#CCBE43" stroke-opacity="1.000000" stroke-width="1.500000"/>
	</g>
	<g clip-path="url(#clip206_1840)">
		<path d="M30.1 39.6C30.94 38.09 31.36 37.33 32 37.33C32.63 37.33 33.05 38.09 33.89 39.6L34.11 39.99C34.35 40.42 34.47 40.64 34.66 40.78C34.85 40.92 35.08 40.97 35.54 41.08L35.97 41.18C37.61 41.55 38.43 41.73 38.62 42.36C38.82 42.99 38.26 43.64 37.14 44.95L36.85 45.29C36.53 45.66 36.38 45.84 36.3 46.07C36.23 46.3 36.26 46.55 36.3 47.05L36.35 47.5C36.52 49.24 36.6 50.11 36.09 50.5C35.58 50.89 34.81 50.54 33.28 49.83L32.88 49.65C32.44 49.45 32.23 49.34 32 49.34C31.76 49.34 31.55 49.45 31.11 49.65L30.71 49.83C29.18 50.54 28.41 50.89 27.9 50.5C27.39 50.11 27.47 49.24 27.64 47.5L27.68 47.05C27.73 46.55 27.76 46.3 27.69 46.07C27.61 45.84 27.46 45.66 27.14 45.29L26.85 44.95C25.73 43.64 25.17 42.99 25.37 42.36C25.56 41.73 26.38 41.55 28.02 41.18L28.45 41.08C28.91 40.97 29.14 40.92 29.33 40.78C29.52 40.64 29.64 40.42 29.88 39.99L30.1 39.6Z" fill="#CCBE43" fill-opacity="1.000000" fill-rule="nonzero"/>
		<path d="M34.11 39.99C34.35 40.42 34.47 40.64 34.66 40.78C34.85 40.92 35.08 40.97 35.54 41.08L35.97 41.18C37.61 41.55 38.43 41.73 38.62 42.36C38.82 42.99 38.26 43.64 37.14 44.95L36.85 45.29C36.53 45.66 36.38 45.84 36.3 46.07C36.23 46.3 36.26 46.55 36.3 47.05L36.35 47.5C36.52 49.24 36.6 50.11 36.09 50.5C35.58 50.89 34.81 50.54 33.28 49.83L32.88 49.65C32.44 49.45 32.23 49.34 32 49.34C31.76 49.34 31.55 49.45 31.11 49.65L30.71 49.83C29.18 50.54 28.41 50.89 27.9 50.5C27.39 50.11 27.47 49.24 27.64 47.5L27.68 47.05C27.73 46.55 27.76 46.3 27.69 46.07C27.61 45.84 27.46 45.66 27.14 45.29L26.85 44.95C25.73 43.64 25.17 42.99 25.37 42.36C25.56 41.73 26.38 41.55 28.02 41.18L28.45 41.08C28.91 40.97 29.14 40.92 29.33 40.78C29.52 40.64 29.64 40.42 29.88 39.99L30.1 39.6C30.94 38.09 31.36 37.33 32 37.33C32.63 37.33 33.05 38.09 33.89 39.6L34.11 39.99Z" stroke="#CCBE43" stroke-opacity="1.000000" stroke-width="1.500000"/>
	</g>
	<g clip-path="url(#clip206_1841)">
		<path d="M54.1 39.6C54.94 38.09 55.36 37.33 56 37.33C56.63 37.33 57.05 38.09 57.89 39.6L58.11 39.99C58.35 40.42 58.47 40.64 58.66 40.78C58.85 40.92 59.08 40.97 59.54 41.08L59.97 41.18C61.61 41.55 62.43 41.73 62.62 42.36C62.82 42.99 62.26 43.64 61.14 44.95L60.85 45.29C60.53 45.66 60.38 45.84 60.3 46.07C60.23 46.3 60.26 46.55 60.3 47.05L60.35 47.5C60.52 49.24 60.6 50.11 60.09 50.5C59.58 50.89 58.81 50.54 57.28 49.83L56.88 49.65C56.44 49.45 56.23 49.34 56 49.34C55.76 49.34 55.55 49.45 55.11 49.65L54.71 49.83C53.18 50.54 52.41 50.89 51.9 50.5C51.39 50.11 51.47 49.24 51.64 47.5L51.68 47.05C51.73 46.55 51.76 46.3 51.69 46.07C51.61 45.84 51.46 45.66 51.14 45.29L50.85 44.95C49.73 43.64 49.17 42.99 49.37 42.36C49.56 41.73 50.38 41.55 52.02 41.18L52.45 41.08C52.91 40.97 53.14 40.92 53.33 40.78C53.52 40.64 53.64 40.42 53.88 39.99L54.1 39.6Z" fill="#CCBE43" fill-opacity="1.000000" fill-rule="nonzero"/>
		<path d="M58.11 39.99C58.35 40.42 58.47 40.64 58.66 40.78C58.85 40.92 59.08 40.97 59.54 41.08L59.97 41.18C61.61 41.55 62.43 41.73 62.62 42.36C62.82 42.99 62.26 43.64 61.14 44.95L60.85 45.29C60.53 45.66 60.38 45.84 60.3 46.07C60.23 46.3 60.26 46.55 60.3 47.05L60.35 47.5C60.52 49.24 60.6 50.11 60.09 50.5C59.58 50.89 58.81 50.54 57.28 49.83L56.88 49.65C56.44 49.45 56.23 49.34 56 49.34C55.76 49.34 55.55 49.45 55.11 49.65L54.71 49.83C53.18 50.54 52.41 50.89 51.9 50.5C51.39 50.11 51.47 49.24 51.64 47.5L51.68 47.05C51.73 46.55 51.76 46.3 51.69 46.07C51.61 45.84 51.46 45.66 51.14 45.29L50.85 44.95C49.73 43.64 49.17 42.99 49.37 42.36C49.56 41.73 50.38 41.55 52.02 41.18L52.45 41.08C52.91 40.97 53.14 40.92 53.33 40.78C53.52 40.64 53.64 40.42 53.88 39.99L54.1 39.6C54.94 38.09 55.36 37.33 56 37.33C56.63 37.33 57.05 38.09 57.89 39.6L58.11 39.99Z" stroke="#CCBE43" stroke-opacity="1.000000" stroke-width="1.500000"/>
	</g>
	<g clip-path="url(#clip206_1842)">
		<path d="M78.1 39.6C78.94 38.09 79.36 37.33 80 37.33C80.63 37.33 81.05 38.09 81.89 39.6L82.11 39.99C82.35 40.42 82.47 40.64 82.66 40.78C82.85 40.92 83.08 40.97 83.54 41.08L83.97 41.18C85.61 41.55 86.43 41.73 86.62 42.36C86.82 42.99 86.26 43.64 85.14 44.95L84.85 45.29C84.53 45.66 84.38 45.84 84.3 46.07C84.23 46.3 84.26 46.55 84.3 47.05L84.35 47.5C84.52 49.24 84.6 50.11 84.09 50.5C83.58 50.89 82.81 50.54 81.28 49.83L80.88 49.65C80.44 49.45 80.23 49.34 80 49.34C79.76 49.34 79.55 49.45 79.11 49.65L78.71 49.83C77.18 50.54 76.41 50.89 75.9 50.5C75.39 50.11 75.47 49.24 75.64 47.5L75.68 47.05C75.73 46.55 75.76 46.3 75.69 46.07C75.61 45.84 75.46 45.66 75.14 45.29L74.85 44.95C73.73 43.64 73.17 42.99 73.37 42.36C73.56 41.73 74.38 41.55 76.02 41.18L76.45 41.08C76.91 40.97 77.14 40.92 77.33 40.78C77.52 40.64 77.64 40.42 77.88 39.99L78.1 39.6Z" fill="#CCBE43" fill-opacity="1.000000" fill-rule="nonzero"/>
		<path d="M82.11 39.99C82.35 40.42 82.47 40.64 82.66 40.78C82.85 40.92 83.08 40.97 83.54 41.08L83.97 41.18C85.61 41.55 86.43 41.73 86.62 42.36C86.82 42.99 86.26 43.64 85.14 44.95L84.85 45.29C84.53 45.66 84.38 45.84 84.3 46.07C84.23 46.3 84.26 46.55 84.3 47.05L84.35 47.5C84.52 49.24 84.6 50.11 84.09 50.5C83.58 50.89 82.81 50.54 81.28 49.83L80.88 49.65C80.44 49.45 80.23 49.34 80 49.34C79.76 49.34 79.55 49.45 79.11 49.65L78.71 49.83C77.18 50.54 76.41 50.89 75.9 50.5C75.39 50.11 75.47 49.24 75.64 47.5L75.68 47.05C75.73 46.55 75.76 46.3 75.69 46.07C75.61 45.84 75.46 45.66 75.14 45.29L74.85 44.95C73.73 43.64 73.17 42.99 73.37 42.36C73.56 41.73 74.38 41.55 76.02 41.18L76.45 41.08C76.91 40.97 77.14 40.92 77.33 40.78C77.52 40.64 77.64 40.42 77.88 39.99L78.1 39.6C78.94 38.09 79.36 37.33 80 37.33C80.63 37.33 81.05 38.09 81.89 39.6L82.11 39.99Z" stroke="#CCBE43" stroke-opacity="1.000000" stroke-width="1.500000"/>
	</g>
	<g clip-path="url(#clip206_1843)">
		<path d="M102.1 39.6C102.94 38.09 103.36 37.33 104 37.33C104.63 37.33 105.05 38.09 105.89 39.6L106.11 39.99C106.35 40.42 106.47 40.64 106.66 40.78C106.85 40.92 107.08 40.97 107.54 41.08L107.97 41.18C109.61 41.55 110.43 41.73 110.62 42.36C110.82 42.99 110.26 43.64 109.14 44.95L108.85 45.29C108.54 45.66 108.38 45.84 108.3 46.07C108.23 46.3 108.26 46.55 108.31 47.05L108.35 47.5C108.52 49.24 108.6 50.11 108.09 50.5C107.58 50.89 106.81 50.54 105.28 49.83L104.88 49.65C104.44 49.45 104.23 49.34 104 49.34C103.76 49.34 103.55 49.45 103.11 49.65L102.71 49.83C101.18 50.54 100.41 50.89 99.9 50.5C99.39 50.11 99.47 49.24 99.64 47.5L99.68 47.05C99.73 46.55 99.76 46.3 99.69 46.07C99.61 45.84 99.46 45.66 99.14 45.29L98.85 44.95C97.73 43.64 97.17 42.99 97.37 42.36C97.56 41.73 98.38 41.55 100.02 41.18L100.45 41.08C100.91 40.97 101.14 40.92 101.33 40.78C101.52 40.64 101.64 40.42 101.88 39.99L102.1 39.6Z" fill="#CCBE43" fill-opacity="1.000000" fill-rule="nonzero"/>
		<path d="M106.11 39.99C106.35 40.42 106.47 40.64 106.66 40.78C106.85 40.92 107.08 40.97 107.54 41.08L107.97 41.18C109.61 41.55 110.43 41.73 110.62 42.36C110.82 42.99 110.26 43.64 109.14 44.95L108.85 45.29C108.54 45.66 108.38 45.84 108.3 46.07C108.23 46.3 108.26 46.55 108.31 47.05L108.35 47.5C108.52 49.24 108.6 50.11 108.09 50.5C107.58 50.89 106.81 50.54 105.28 49.83L104.88 49.65C104.44 49.45 104.23 49.34 104 49.34C103.76 49.34 103.55 49.45 103.11 49.65L102.71 49.83C101.18 50.54 100.41 50.89 99.9 50.5C99.39 50.11 99.47 49.24 99.64 47.5L99.68 47.05C99.73 46.55 99.76 46.3 99.69 46.07C99.61 45.84 99.46 45.66 99.14 45.29L98.85 44.95C97.73 43.64 97.17 42.99 97.37 42.36C97.56 41.73 98.38 41.55 100.02 41.18L100.45 41.08C100.91 40.97 101.14 40.92 101.33 40.78C101.52 40.64 101.64 40.42 101.88 39.99L102.1 39.6C102.94 38.09 103.36 37.33 104 37.33C104.63 37.33 105.05 38.09 105.89 39.6L106.11 39.99Z" stroke="#CCBE43" stroke-opacity="1.000000" stroke-width="1.500000"/>
	</g>
</svg>
