<svg width="114.000000" height="53.000000" viewBox="0 0 114 53" fill="none" xmlns="http://www.w3.org/2000/svg" xmlns:xlink="http://www.w3.org/1999/xlink">
	<desc>
			Created with Pixso.
	</desc>
	<defs>
		<clipPath id="clip206_1863">
			<rect rx="5.000000" width="16.000000" height="16.000000" transform="translate(0.000000 36.000000)" fill="white" fill-opacity="0"/>
		</clipPath>
		<clipPath id="clip206_1864">
			<rect rx="5.000000" width="16.000000" height="16.000000" transform="translate(24.000000 36.000000)" fill="white" fill-opacity="0"/>
		</clipPath>
		<clipPath id="clip206_1865">
			<rect rx="5.000000" width="16.000000" height="16.000000" transform="translate(48.000000 36.000000)" fill="white" fill-opacity="0"/>
		</clipPath>
		<clipPath id="clip206_1866">
			<rect rx="5.000000" width="16.000000" height="16.000000" transform="translate(72.000000 36.000000)" fill="white" fill-opacity="0"/>
		</clipPath>
		<clipPath id="clip206_1867">
			<rect rx="5.000000" width="16.000000" height="16.000000" transform="translate(96.000000 36.000000)" fill="white" fill-opacity="0"/>
		</clipPath>
	</defs>
	<path d="M96.51 20.8C95.93 20.8 95.45 20.32 95.45 19.75L95.45 6.81C95.45 6.24 95.9 5.76 96.51 5.76C97.08 5.76 97.57 6.22 97.57 6.81L97.57 19.75C97.57 20.32 97.08 20.8 96.51 20.8Z" fill="#AFB2BF" fill-opacity="1.000000" fill-rule="nonzero"/>
	<path d="M60.31 17.82C59.88 17.48 59.28 17.53 58.9 17.96C57.96 19.12 55.6 18.84 54.99 18.58C54.1 18.24 53.67 17.5 53.67 16.42L53.67 9.34L58.36 9.34C58.93 9.34 59.42 8.89 59.42 8.29C59.42 7.72 58.96 7.24 58.36 7.24L53.67 7.24L53.67 1.95C53.67 1.41 53.24 0.96 52.66 0.96C52.12 0.96 51.69 1.38 51.69 1.95L51.69 16.42C51.69 18.3 52.61 19.75 54.25 20.4C54.76 20.6 55.57 20.77 56.46 20.77C57.87 20.77 59.48 20.38 60.46 19.18C60.8 18.75 60.74 18.16 60.31 17.82Z" fill="#AFB2BF" fill-opacity="1.000000" fill-rule="nonzero"/>
	<path d="M44.04 20.86C43.72 20.86 43.38 20.83 43.06 20.8C39.61 20.38 37.54 18.78 37.54 16.59C37.54 16.03 38 15.54 38.61 15.54C39.18 15.54 39.67 16.03 39.67 16.59C39.67 17.62 41.11 18.44 43.35 18.73C45.59 19.01 47.17 17.9 47.4 17.05C47.55 16.54 47.49 16.08 47.26 15.71C47 15.31 46.57 15.06 45.91 14.92C41.39 14.12 38.4 13.38 37.97 10.57C37.83 9.54 38.12 8.52 38.81 7.72C39.78 6.59 41.48 5.93 43.47 5.93C47.09 5.93 49.45 7.52 49.45 10.03C49.45 10.6 48.96 11.08 48.38 11.08C47.81 11.08 47.32 10.6 47.32 10.03C47.32 8.55 45.25 8.04 43.47 8.04C42.14 8.04 40.99 8.43 40.42 9.09C40.13 9.43 39.99 9.83 40.07 10.25C40.24 11.31 41.19 11.96 46.31 12.84L46.34 12.84C47.89 13.15 48.7 13.98 49.07 14.58C49.62 15.43 49.76 16.48 49.47 17.56C48.96 19.29 46.89 20.86 44.04 20.86Z" fill="#AFB2BF" fill-opacity="1.000000" fill-rule="nonzero"/>
	<path d="M68.42 20.86C64.25 20.86 60.86 17.5 60.86 13.41C60.86 9.29 64.25 5.96 68.42 5.96C72.22 5.96 75.46 8.78 75.92 12.5C75.98 12.98 75.72 13.38 75.55 13.58C75.29 13.86 74.95 14.04 74.6 14.04L63.02 14.04C63.3 16.71 65.63 18.81 68.42 18.81C70.29 18.81 72.19 17.84 72.99 16.51C73.28 16 73.94 15.85 74.43 16.14C74.92 16.42 75.12 17.08 74.8 17.56C73.65 19.49 71.07 20.86 68.42 20.86ZM63.19 11.9L73.65 11.9C72.99 9.66 70.86 8.04 68.42 8.04C65.95 8.04 63.85 9.66 63.19 11.9Z" fill="#AFB2BF" fill-opacity="1.000000" fill-rule="nonzero"/>
	<path d="M85.47 5.93C83.34 5.93 81.42 6.81 80.04 8.21L80.04 6.96C80.04 6.39 79.55 5.9 78.97 5.9C78.4 5.9 77.91 6.36 77.91 6.96L77.91 24.9C77.91 25.46 78.37 25.95 78.97 25.95C79.55 25.95 80.04 25.46 80.04 24.9L80.04 18.56C81.42 19.98 83.34 20.83 85.47 20.83C89.64 20.83 93 17.48 93 13.38C93 9.29 89.64 5.93 85.47 5.93ZM85.47 18.75C82.48 18.75 80.04 16.34 80.04 13.38C80.04 10.42 82.48 8.01 85.47 8.01C88.46 8.01 90.9 10.42 90.9 13.38C90.9 16.34 88.46 18.75 85.47 18.75Z" fill="#AFB2BF" fill-opacity="1.000000" fill-rule="nonzero"/>
	<path d="M111.6 20.74C110.57 20.74 109.53 20.29 108.58 19.41C107.87 18.73 103.27 14.15 103.09 13.95C102.89 13.75 102.78 13.49 102.78 13.21C102.78 12.93 102.89 12.67 103.09 12.47L109.42 6.36C109.85 5.96 110.51 5.96 110.91 6.39C111.32 6.79 111.32 7.47 110.88 7.87L105.34 13.21C106.69 14.58 109.5 17.36 110.02 17.87C110.6 18.41 111.14 18.67 111.66 18.64C111.8 18.64 112.15 18.64 112.44 18.64C113.01 18.64 113.5 19.12 113.5 19.69C113.5 20.26 113.01 20.72 112.44 20.74C112.15 20.74 111.86 20.74 111.72 20.74C111.69 20.74 111.63 20.74 111.6 20.74Z" fill="#AFB2BF" fill-opacity="1.000000" fill-rule="nonzero"/>
	<path d="M101.37 20.77C100.79 20.77 100.3 20.32 100.3 19.72L100.3 1.92C100.3 1.35 100.79 0.87 101.37 0.87C101.94 0.87 102.43 1.33 102.43 1.92L102.43 19.72C102.43 20.32 101.94 20.77 101.37 20.77Z" fill="#AFB2BF" fill-opacity="1.000000" fill-rule="nonzero"/>
	<path d="M96.54 3.63C97.29 3.63 97.89 3.03 97.89 2.29C97.89 1.55 97.29 0.96 96.54 0.96C95.79 0.96 95.19 1.55 95.19 2.29C95.19 3.03 95.79 3.63 96.54 3.63Z" fill="#AFB2BF" fill-opacity="1.000000" fill-rule="nonzero"/>
	<path d="M25.93 7.07L21.21 2.38C19.37 0.59 16.96 -0.41 14.37 -0.41C11.78 -0.41 9.37 0.59 7.56 2.38L2.84 7.07C1 8.86 0 11.25 0 13.81C0 16.37 1 18.75 2.81 20.55L7.53 25.21C9.34 27 11.78 28 14.34 28C16.84 28 19.23 27.06 21.04 25.32L25.87 20.55C27.68 18.75 28.69 16.34 28.69 13.81C28.75 11.25 27.77 8.86 25.93 7.07Z" fill="#AFB2BF" fill-opacity="1.000000" fill-rule="nonzero"/>
	<path d="M17.85 22.02C16.96 22.88 15.72 23.42 14.4 23.42C13.02 23.42 11.78 22.88 10.86 21.97L13.19 19.66C13.51 19.98 13.91 20.15 14.4 20.15C14.86 20.15 15.29 19.95 15.61 19.66L20.32 15C20.64 14.69 20.81 14.29 20.81 13.81C20.81 13.35 20.61 12.93 20.32 12.61C20.01 12.3 19.6 12.13 19.11 12.13C18.62 12.13 18.22 12.33 17.91 12.61L13.19 17.3C12.3 18.19 11.04 18.75 9.65 18.75C8.28 18.75 7.04 18.19 6.12 17.3C5.23 16.42 4.65 15.17 4.65 13.81C4.65 12.44 5.2 11.22 6.12 10.31L10.83 5.65C11.73 4.77 12.99 4.2 14.37 4.2C15.75 4.2 16.99 4.74 17.91 5.65L15.58 7.95C15.26 7.64 14.86 7.47 14.37 7.47C13.88 7.47 13.48 7.67 13.16 7.95L8.45 12.61C8.13 12.93 7.96 13.32 7.96 13.81C7.96 14.26 8.16 14.69 8.45 15C8.76 15.31 9.17 15.49 9.65 15.49C10.11 15.49 10.55 15.29 10.86 15L15.58 10.34C16.47 9.46 17.73 8.89 19.11 8.89C20.49 8.89 21.73 9.43 22.65 10.34C23.54 11.22 24.12 12.47 24.12 13.84C24.12 15.2 23.57 16.42 22.65 17.33L17.85 22.02Z" fill="#1E1F29" fill-opacity="1.000000" fill-rule="nonzero"/>
	<g clip-path="url(#clip206_1863)">
		<path d="M6.1 39.6C6.94 38.09 7.36 37.33 8 37.33C8.63 37.33 9.05 38.09 9.89 39.6L10.11 39.99C10.35 40.42 10.47 40.64 10.66 40.78C10.85 40.92 11.08 40.97 11.54 41.08L11.97 41.18C13.61 41.55 14.43 41.73 14.62 42.36C14.82 42.99 14.26 43.64 13.14 44.95L12.85 45.29C12.53 45.66 12.38 45.84 12.3 46.07C12.23 46.3 12.26 46.55 12.31 47.05L12.35 47.5C12.52 49.24 12.6 50.11 12.09 50.5C11.58 50.89 10.81 50.54 9.28 49.83L8.88 49.65C8.44 49.45 8.23 49.34 8 49.34C7.76 49.34 7.55 49.45 7.11 49.65L6.71 49.83C5.18 50.54 4.41 50.89 3.9 50.5C3.39 50.11 3.47 49.24 3.64 47.5L3.69 47.05C3.73 46.55 3.76 46.3 3.69 46.07C3.61 45.84 3.46 45.66 3.14 45.29L2.85 44.95C1.73 43.64 1.17 42.99 1.37 42.36C1.56 41.73 2.38 41.55 4.02 41.18L4.45 41.08C4.91 40.97 5.14 40.92 5.33 40.78C5.52 40.64 5.64 40.42 5.88 39.99L6.1 39.6Z" fill="#CCBE43" fill-opacity="1.000000" fill-rule="nonzero"/>
		<path d="M10.11 39.99C10.35 40.42 10.47 40.64 10.66 40.78C10.85 40.92 11.08 40.97 11.54 41.08L11.97 41.18C13.61 41.55 14.43 41.73 14.62 42.36C14.82 42.99 14.26 43.64 13.14 44.95L12.85 45.29C12.53 45.66 12.38 45.84 12.3 46.07C12.23 46.3 12.26 46.55 12.31 47.05L12.35 47.5C12.52 49.24 12.6 50.11 12.09 50.5C11.58 50.89 10.81 50.54 9.28 49.83L8.88 49.65C8.44 49.45 8.23 49.34 8 49.34C7.76 49.34 7.55 49.45 7.11 49.65L6.71 49.83C5.18 50.54 4.41 50.89 3.9 50.5C3.39 50.11 3.47 49.24 3.64 47.5L3.69 47.05C3.73 46.55 3.76 46.3 3.69 46.07C3.61 45.84 3.46 45.66 3.14 45.29L2.85 44.95C1.73 43.64 1.17 42.99 1.37 42.36C1.56 41.73 2.38 41.55 4.02 41.18L4.45 41.08C4.91 40.97 5.14 40.92 5.33 40.78C5.52 40.64 5.64 40.42 5.88 39.99L6.1 39.6C6.94 38.09 7.36 37.33 8 37.33C8.63 37.33 9.05 38.09 9.89 39.6L10.11 39.99Z" stroke="#CCBE43" stroke-opacity="1.000000" stroke-width="1.500000"/>
	</g>
	<g clip-path="url(#clip206_1864)">
		<path d="M30.1 39.6C30.94 38.09 31.36 37.33 32 37.33C32.63 37.33 33.05 38.09 33.89 39.6L34.11 39.99C34.35 40.42 34.47 40.64 34.66 40.78C34.85 40.92 35.08 40.97 35.54 41.08L35.97 41.18C37.61 41.55 38.43 41.73 38.62 42.36C38.82 42.99 38.26 43.64 37.14 44.95L36.85 45.29C36.53 45.66 36.38 45.84 36.3 46.07C36.23 46.3 36.26 46.55 36.31 47.05L36.35 47.5C36.52 49.24 36.6 50.11 36.09 50.5C35.58 50.89 34.81 50.54 33.28 49.83L32.88 49.65C32.44 49.45 32.23 49.34 32 49.34C31.76 49.34 31.55 49.45 31.11 49.65L30.71 49.83C29.18 50.54 28.41 50.89 27.9 50.5C27.39 50.11 27.47 49.24 27.64 47.5L27.69 47.05C27.73 46.55 27.76 46.3 27.69 46.07C27.61 45.84 27.46 45.66 27.14 45.29L26.85 44.95C25.73 43.64 25.17 42.99 25.37 42.36C25.56 41.73 26.38 41.55 28.02 41.18L28.45 41.08C28.91 40.97 29.14 40.92 29.33 40.78C29.52 40.64 29.64 40.42 29.88 39.99L30.1 39.6Z" fill="#CCBE43" fill-opacity="1.000000" fill-rule="nonzero"/>
		<path d="M34.11 39.99C34.35 40.42 34.47 40.64 34.66 40.78C34.85 40.92 35.08 40.97 35.54 41.08L35.97 41.18C37.61 41.55 38.43 41.73 38.62 42.36C38.82 42.99 38.26 43.64 37.14 44.95L36.85 45.29C36.53 45.66 36.38 45.84 36.3 46.07C36.23 46.3 36.26 46.55 36.31 47.05L36.35 47.5C36.52 49.24 36.6 50.11 36.09 50.5C35.58 50.89 34.81 50.54 33.28 49.83L32.88 49.65C32.44 49.45 32.23 49.34 32 49.34C31.76 49.34 31.55 49.45 31.11 49.65L30.71 49.83C29.18 50.54 28.41 50.89 27.9 50.5C27.39 50.11 27.47 49.24 27.64 47.5L27.69 47.05C27.73 46.55 27.76 46.3 27.69 46.07C27.61 45.84 27.46 45.66 27.14 45.29L26.85 44.95C25.73 43.64 25.17 42.99 25.37 42.36C25.56 41.73 26.38 41.55 28.02 41.18L28.45 41.08C28.91 40.97 29.14 40.92 29.33 40.78C29.52 40.64 29.64 40.42 29.88 39.99L30.1 39.6C30.94 38.09 31.36 37.33 32 37.33C32.63 37.33 33.05 38.09 33.89 39.6L34.11 39.99Z" stroke="#CCBE43" stroke-opacity="1.000000" stroke-width="1.500000"/>
	</g>
	<g clip-path="url(#clip206_1865)">
		<path d="M54.1 39.6C54.94 38.09 55.36 37.33 56 37.33C56.63 37.33 57.05 38.09 57.89 39.6L58.11 39.99C58.35 40.42 58.47 40.64 58.66 40.78C58.85 40.92 59.08 40.97 59.54 41.08L59.97 41.18C61.61 41.55 62.43 41.73 62.62 42.36C62.82 42.99 62.26 43.64 61.14 44.95L60.85 45.29C60.53 45.66 60.38 45.84 60.3 46.07C60.23 46.3 60.26 46.55 60.3 47.05L60.35 47.5C60.52 49.24 60.6 50.11 60.09 50.5C59.58 50.89 58.81 50.54 57.28 49.83L56.88 49.65C56.44 49.45 56.23 49.34 56 49.34C55.76 49.34 55.55 49.45 55.11 49.65L54.71 49.83C53.18 50.54 52.41 50.89 51.9 50.5C51.39 50.11 51.47 49.24 51.64 47.5L51.68 47.05C51.73 46.55 51.76 46.3 51.69 46.07C51.61 45.84 51.46 45.66 51.14 45.29L50.85 44.95C49.73 43.64 49.17 42.99 49.37 42.36C49.56 41.73 50.38 41.55 52.02 41.18L52.45 41.08C52.91 40.97 53.14 40.92 53.33 40.78C53.52 40.64 53.64 40.42 53.88 39.99L54.1 39.6Z" fill="#CCBE43" fill-opacity="1.000000" fill-rule="nonzero"/>
		<path d="M58.11 39.99C58.35 40.42 58.47 40.64 58.66 40.78C58.85 40.92 59.08 40.97 59.54 41.08L59.97 41.18C61.61 41.55 62.43 41.73 62.62 42.36C62.82 42.99 62.26 43.64 61.14 44.95L60.85 45.29C60.53 45.66 60.38 45.84 60.3 46.07C60.23 46.3 60.26 46.55 60.3 47.05L60.35 47.5C60.52 49.24 60.6 50.11 60.09 50.5C59.58 50.89 58.81 50.54 57.28 49.83L56.88 49.65C56.44 49.45 56.23 49.34 56 49.34C55.76 49.34 55.55 49.45 55.11 49.65L54.71 49.83C53.18 50.54 52.41 50.89 51.9 50.5C51.39 50.11 51.47 49.24 51.64 47.5L51.68 47.05C51.73 46.55 51.76 46.3 51.69 46.07C51.61 45.84 51.46 45.66 51.14 45.29L50.85 44.95C49.73 43.64 49.17 42.99 49.37 42.36C49.56 41.73 50.38 41.55 52.02 41.18L52.45 41.08C52.91 40.97 53.14 40.92 53.33 40.78C53.52 40.64 53.64 40.42 53.88 39.99L54.1 39.6C54.94 38.09 55.36 37.33 56 37.33C56.63 37.33 57.05 38.09 57.89 39.6L58.11 39.99Z" stroke="#CCBE43" stroke-opacity="1.000000" stroke-width="1.500000"/>
	</g>
	<g clip-path="url(#clip206_1866)">
		<path d="M78.1 39.6C78.94 38.09 79.36 37.33 80 37.33C80.63 37.33 81.05 38.09 81.89 39.6L82.11 39.99C82.35 40.42 82.47 40.64 82.66 40.78C82.85 40.92 83.08 40.97 83.54 41.08L83.97 41.18C85.61 41.55 86.43 41.73 86.62 42.36C86.82 42.99 86.26 43.64 85.14 44.95L84.85 45.29C84.53 45.66 84.38 45.84 84.3 46.07C84.23 46.3 84.26 46.55 84.31 47.05L84.35 47.5C84.52 49.24 84.6 50.11 84.09 50.5C83.58 50.89 82.81 50.54 81.28 49.83L80.88 49.65C80.44 49.45 80.23 49.34 80 49.34C79.76 49.34 79.55 49.45 79.11 49.65L78.71 49.83C77.18 50.54 76.41 50.89 75.9 50.5C75.39 50.11 75.47 49.24 75.64 47.5L75.69 47.05C75.73 46.55 75.76 46.3 75.69 46.07C75.61 45.84 75.46 45.66 75.14 45.29L74.85 44.95C73.73 43.64 73.17 42.99 73.37 42.36C73.56 41.73 74.38 41.55 76.02 41.18L76.45 41.08C76.91 40.97 77.14 40.92 77.33 40.78C77.52 40.64 77.64 40.42 77.88 39.99L78.1 39.6Z" fill="#CCBE43" fill-opacity="1.000000" fill-rule="nonzero"/>
		<path d="M82.11 39.99C82.35 40.42 82.47 40.64 82.66 40.78C82.85 40.92 83.08 40.97 83.54 41.08L83.97 41.18C85.61 41.55 86.43 41.73 86.62 42.36C86.82 42.99 86.26 43.64 85.14 44.95L84.85 45.29C84.53 45.66 84.38 45.84 84.3 46.07C84.23 46.3 84.26 46.55 84.31 47.05L84.35 47.5C84.52 49.24 84.6 50.11 84.09 50.5C83.58 50.89 82.81 50.54 81.28 49.83L80.88 49.65C80.44 49.45 80.23 49.34 80 49.34C79.76 49.34 79.55 49.45 79.11 49.65L78.71 49.83C77.18 50.54 76.41 50.89 75.9 50.5C75.39 50.11 75.47 49.24 75.64 47.5L75.69 47.05C75.73 46.55 75.76 46.3 75.69 46.07C75.61 45.84 75.46 45.66 75.14 45.29L74.85 44.95C73.73 43.64 73.17 42.99 73.37 42.36C73.56 41.73 74.38 41.55 76.02 41.18L76.45 41.08C76.91 40.97 77.14 40.92 77.33 40.78C77.52 40.64 77.64 40.42 77.88 39.99L78.1 39.6C78.94 38.09 79.36 37.33 80 37.33C80.63 37.33 81.05 38.09 81.89 39.6L82.11 39.99Z" stroke="#CCBE43" stroke-opacity="1.000000" stroke-width="1.500000"/>
	</g>
	<g clip-path="url(#clip206_1867)">
		<path d="M102.1 39.6C102.94 38.09 103.36 37.33 104 37.33C104.63 37.33 105.05 38.09 105.89 39.6L106.11 39.99C106.35 40.42 106.47 40.64 106.66 40.78C106.85 40.92 107.08 40.97 107.55 41.08L107.97 41.18C109.61 41.55 110.43 41.73 110.62 42.36C110.82 42.99 110.26 43.64 109.14 44.95L108.85 45.29C108.54 45.66 108.38 45.84 108.31 46.07C108.23 46.3 108.26 46.55 108.31 47.05L108.35 47.5C108.52 49.24 108.6 50.11 108.09 50.5C107.58 50.89 106.81 50.54 105.28 49.83L104.88 49.65C104.44 49.45 104.23 49.34 104 49.34C103.76 49.34 103.55 49.45 103.11 49.65L102.71 49.83C101.18 50.54 100.41 50.89 99.9 50.5C99.39 50.11 99.47 49.24 99.64 47.5L99.69 47.05C99.73 46.55 99.76 46.3 99.69 46.07C99.61 45.84 99.46 45.66 99.14 45.29L98.85 44.95C97.73 43.64 97.17 42.99 97.37 42.36C97.56 41.73 98.38 41.55 100.02 41.18L100.45 41.08C100.91 40.97 101.15 40.92 101.33 40.78C101.52 40.64 101.64 40.42 101.88 39.99L102.1 39.6Z" fill="#CCBE43" fill-opacity="1.000000" fill-rule="nonzero"/>
		<path d="M106.11 39.99C106.35 40.42 106.47 40.64 106.66 40.78C106.85 40.92 107.08 40.97 107.55 41.08L107.97 41.18C109.61 41.55 110.43 41.73 110.62 42.36C110.82 42.99 110.26 43.64 109.14 44.95L108.85 45.29C108.54 45.66 108.38 45.84 108.31 46.07C108.23 46.3 108.26 46.55 108.31 47.05L108.35 47.5C108.52 49.24 108.6 50.11 108.09 50.5C107.58 50.89 106.81 50.54 105.28 49.83L104.88 49.65C104.44 49.45 104.23 49.34 104 49.34C103.76 49.34 103.55 49.45 103.11 49.65L102.71 49.83C101.18 50.54 100.41 50.89 99.9 50.5C99.39 50.11 99.47 49.24 99.64 47.5L99.69 47.05C99.73 46.55 99.76 46.3 99.69 46.07C99.61 45.84 99.46 45.66 99.14 45.29L98.85 44.95C97.73 43.64 97.17 42.99 97.37 42.36C97.56 41.73 98.38 41.55 100.02 41.18L100.45 41.08C100.91 40.97 101.15 40.92 101.33 40.78C101.52 40.64 101.64 40.42 101.88 39.99L102.1 39.6C102.94 38.09 103.36 37.33 104 37.33C104.63 37.33 105.05 38.09 105.89 39.6L106.11 39.99Z" stroke="#CCBE43" stroke-opacity="1.000000" stroke-width="1.500000"/>
	</g>
</svg>
