<svg width="24.000000" height="24.000000" viewBox="0 0 24 24" fill="none" xmlns="http://www.w3.org/2000/svg" xmlns:xlink="http://www.w3.org/1999/xlink">
	<desc>
			Created with Pixso.
	</desc>
	<defs/>
	<path id="telegram" d="M1.64 10.61C8.09 7.78 12.38 5.92 14.53 5.02C20.67 2.46 21.95 2.01 22.78 2C22.96 1.99 23.37 2.04 23.63 2.25C23.86 2.44 23.92 2.68 23.95 2.86C23.98 3.03 24.01 3.42 23.98 3.73C23.65 7.24 22.21 15.77 21.48 19.71C21.17 21.37 20.56 21.93 19.97 21.99C18.69 22.1 17.71 21.13 16.47 20.31C14.52 19.03 13.43 18.23 11.54 16.98C9.36 15.54 10.77 14.74 12.01 13.44C12.34 13.1 17.99 7.93 18.1 7.46C18.12 7.4 18.13 7.18 18 7.07C17.87 6.95 17.68 6.99 17.54 7.02C17.35 7.07 14.24 9.13 8.22 13.22C7.34 13.83 6.54 14.13 5.82 14.11C5.04 14.09 3.52 13.66 2.39 13.29C1.01 12.84 -0.1 12.6 0 11.83C0.05 11.43 0.6 11.02 1.64 10.61Z" fill="#FAFAFA" fill-opacity="1.000000" fill-rule="nonzero"/>
</svg>
