<svg width="112.000000" height="58.000000" viewBox="0 0 112 58" fill="none" xmlns="http://www.w3.org/2000/svg" xmlns:xlink="http://www.w3.org/1999/xlink">
	<desc>
			Created with Pixso.
	</desc>
	<defs>
		<clipPath id="clip206_1873">
			<rect width="91.000000" height="34.000000" fill="white" fill-opacity="0"/>
		</clipPath>
		<clipPath id="clip206_1877">
			<rect rx="5.000000" width="16.000000" height="16.000000" transform="translate(0.000000 42.000000)" fill="white" fill-opacity="0"/>
		</clipPath>
		<clipPath id="clip206_1878">
			<rect rx="5.000000" width="16.000000" height="16.000000" transform="translate(24.000000 42.000000)" fill="white" fill-opacity="0"/>
		</clipPath>
		<clipPath id="clip206_1879">
			<rect rx="5.000000" width="16.000000" height="16.000000" transform="translate(48.000000 42.000000)" fill="white" fill-opacity="0"/>
		</clipPath>
		<clipPath id="clip206_1880">
			<rect rx="5.000000" width="16.000000" height="16.000000" transform="translate(72.000000 42.000000)" fill="white" fill-opacity="0"/>
		</clipPath>
		<clipPath id="clip206_1881">
			<rect rx="5.000000" width="16.000000" height="16.000000" transform="translate(96.000000 42.000000)" fill="white" fill-opacity="0"/>
		</clipPath>
	</defs>
	<rect width="91.000000" height="34.000000" fill="#FFFFFF" fill-opacity="0"/>
	<g clip-path="url(#clip206_1873)">
		<path d="M14.05 8.11L7.02 4.05L0 8.11L0 4.05L7.02 0L14.05 4.05L14.05 8.11Z" fill="#AFB2BF" fill-opacity="1.000000" fill-rule="nonzero"/>
		<path d="M0 11.51L3.67 11.51L3.67 20.45C3.67 22.76 5.4 23.89 7.02 23.89C8.65 23.89 10.37 22.73 10.37 20.42L10.37 11.51L14.05 11.51L14.05 20.67C14.05 22.79 13.38 24.44 12.04 25.56C10.7 26.69 9.03 27.24 6.99 27.24C4.95 27.24 3.28 26.69 1.97 25.56C0.66 24.44 0 22.86 0 20.76L0 11.51ZM45.86 22.62C44.75 23.62 43.48 24.1 42.03 24.1C39.39 24.1 37.62 22.6 37.42 20.27L49.31 20.27C49.31 20.27 49.39 19.52 49.39 18.81C49.39 16.62 48.69 14.8 47.26 13.31C45.86 11.82 44.04 11.09 41.82 11.09C39.48 11.09 37.56 11.82 36.04 13.31C34.55 14.8 33.79 16.74 33.79 19.18L33.79 19.3C33.79 21.7 34.55 23.62 36.04 25.05C37.53 26.47 39.51 27.2 41.91 27.2C44.7 27.2 46.93 26.1 48.59 24.2L45.86 22.62ZM38.87 15.16C39.69 14.52 40.69 14.19 41.82 14.19C42.88 14.19 43.76 14.52 44.52 15.19C45.25 15.8 45.64 16.55 45.68 17.41L37.52 17.41C37.63 16.52 38.08 15.77 38.87 15.16L38.87 15.16ZM82.9 29.27C81.41 32.8 79.85 33.99 77.46 33.99L75.8 33.99L75.8 30.73L77.14 30.73C77.96 30.73 78.73 30.42 79.46 28.74L80.19 27.05L73.89 11.51L77.63 11.51L82.1 22.7L86.7 11.51L90.44 11.51L82.9 29.27ZM28.37 5.64L28.37 12.9C27.17 11.82 25.29 11.18 23.48 11.18C21.32 11.18 19.49 11.94 18 13.49C16.54 15.01 15.81 16.89 15.81 19.17C15.81 21.46 16.54 23.34 18 24.89C19.49 26.41 21.32 27.17 23.48 27.17C25.97 27.17 27.54 26.2 28.37 25.43L28.37 26.84L32.02 26.84L32.02 5.64L28.37 5.64ZM27.28 22.52C26.39 23.4 25.27 23.86 23.96 23.86C22.65 23.86 21.59 23.4 20.71 22.52C19.86 21.64 19.43 20.51 19.43 19.18C19.43 17.84 19.86 16.71 20.71 15.83C21.59 14.95 22.65 14.49 23.96 14.49C25.27 14.49 26.39 14.95 27.28 15.83C28.19 16.71 28.65 17.84 28.65 19.18C28.65 20.51 28.19 21.64 27.28 22.52ZM68.22 11.21C65.44 11.21 64 12.36 63.02 13.47C62.62 12.71 61.51 11.21 58.91 11.21C56.72 11.21 55.42 12.32 54.78 13.11L54.78 11.51L51.16 11.51L51.16 26.84L54.78 26.84L54.78 18.02C54.78 15.95 56.05 14.46 57.76 14.46C59.49 14.46 60.49 15.77 60.49 17.87L60.49 26.84L64.11 26.84L64.11 18.02C64.11 15.92 65.36 14.46 67.15 14.46C68.89 14.46 69.89 15.77 69.89 17.87L69.89 26.84L73.54 26.84L73.54 17.35C73.54 13.36 71.39 11.21 68.22 11.21L68.22 11.21Z" fill="#AFB2BF" fill-opacity="1.000000" fill-rule="nonzero"/>
	</g>
	<g clip-path="url(#clip206_1877)">
		<path d="M6.1 45.6C6.94 44.09 7.36 43.33 8 43.33C8.63 43.33 9.05 44.09 9.89 45.6L10.11 45.99C10.35 46.42 10.47 46.64 10.66 46.78C10.85 46.92 11.08 46.97 11.54 47.08L11.97 47.18C13.61 47.55 14.43 47.73 14.62 48.36C14.82 48.99 14.26 49.64 13.14 50.95L12.85 51.29C12.53 51.66 12.38 51.84 12.3 52.07C12.23 52.3 12.26 52.55 12.3 53.05L12.35 53.5C12.52 55.24 12.6 56.11 12.09 56.5C11.58 56.89 10.81 56.54 9.28 55.83L8.88 55.65C8.44 55.45 8.23 55.34 8 55.34C7.76 55.34 7.55 55.45 7.11 55.65L6.71 55.83C5.18 56.54 4.41 56.89 3.9 56.5C3.39 56.11 3.47 55.24 3.64 53.5L3.68 53.05C3.73 52.55 3.76 52.3 3.69 52.07C3.61 51.84 3.46 51.66 3.14 51.29L2.85 50.95C1.73 49.64 1.17 48.99 1.37 48.36C1.56 47.73 2.38 47.55 4.02 47.18L4.45 47.08C4.91 46.97 5.14 46.92 5.33 46.78C5.52 46.64 5.64 46.42 5.88 45.99L6.1 45.6Z" fill="#CCBE43" fill-opacity="1.000000" fill-rule="nonzero"/>
		<path d="M10.11 45.99C10.35 46.42 10.47 46.64 10.66 46.78C10.85 46.92 11.08 46.97 11.54 47.08L11.97 47.18C13.61 47.55 14.43 47.73 14.62 48.36C14.82 48.99 14.26 49.64 13.14 50.95L12.85 51.29C12.53 51.66 12.38 51.84 12.3 52.07C12.23 52.3 12.26 52.55 12.3 53.05L12.35 53.5C12.52 55.24 12.6 56.11 12.09 56.5C11.58 56.89 10.81 56.54 9.28 55.83L8.88 55.65C8.44 55.45 8.23 55.34 8 55.34C7.76 55.34 7.55 55.45 7.11 55.65L6.71 55.83C5.18 56.54 4.41 56.89 3.9 56.5C3.39 56.11 3.47 55.24 3.64 53.5L3.68 53.05C3.73 52.55 3.76 52.3 3.69 52.07C3.61 51.84 3.46 51.66 3.14 51.29L2.85 50.95C1.73 49.64 1.17 48.99 1.37 48.36C1.56 47.73 2.38 47.55 4.02 47.18L4.45 47.08C4.91 46.97 5.14 46.92 5.33 46.78C5.52 46.64 5.64 46.42 5.88 45.99L6.1 45.6C6.94 44.09 7.36 43.33 8 43.33C8.63 43.33 9.05 44.09 9.89 45.6L10.11 45.99Z" stroke="#CCBE43" stroke-opacity="1.000000" stroke-width="1.500000"/>
	</g>
	<g clip-path="url(#clip206_1878)">
		<path d="M30.1 45.6C30.94 44.09 31.36 43.33 32 43.33C32.63 43.33 33.05 44.09 33.89 45.6L34.11 45.99C34.35 46.42 34.47 46.64 34.66 46.78C34.85 46.92 35.08 46.97 35.54 47.08L35.97 47.18C37.61 47.55 38.43 47.73 38.62 48.36C38.82 48.99 38.26 49.64 37.14 50.95L36.85 51.29C36.53 51.66 36.38 51.84 36.3 52.07C36.23 52.3 36.26 52.55 36.31 53.05L36.35 53.5C36.52 55.24 36.6 56.11 36.09 56.5C35.58 56.89 34.81 56.54 33.28 55.83L32.88 55.65C32.44 55.45 32.23 55.34 32 55.34C31.76 55.34 31.55 55.45 31.11 55.65L30.71 55.83C29.18 56.54 28.41 56.89 27.9 56.5C27.39 56.11 27.47 55.24 27.64 53.5L27.69 53.05C27.73 52.55 27.76 52.3 27.69 52.07C27.61 51.84 27.46 51.66 27.14 51.29L26.85 50.95C25.73 49.64 25.17 48.99 25.37 48.36C25.56 47.73 26.38 47.55 28.02 47.18L28.45 47.08C28.91 46.97 29.14 46.92 29.33 46.78C29.52 46.64 29.64 46.42 29.88 45.99L30.1 45.6Z" fill="#CCBE43" fill-opacity="1.000000" fill-rule="nonzero"/>
		<path d="M34.11 45.99C34.35 46.42 34.47 46.64 34.66 46.78C34.85 46.92 35.08 46.97 35.54 47.08L35.97 47.18C37.61 47.55 38.43 47.73 38.62 48.36C38.82 48.99 38.26 49.64 37.14 50.95L36.85 51.29C36.53 51.66 36.38 51.84 36.3 52.07C36.23 52.3 36.26 52.55 36.31 53.05L36.35 53.5C36.52 55.24 36.6 56.11 36.09 56.5C35.58 56.89 34.81 56.54 33.28 55.83L32.88 55.65C32.44 55.45 32.23 55.34 32 55.34C31.76 55.34 31.55 55.45 31.11 55.65L30.71 55.83C29.18 56.54 28.41 56.89 27.9 56.5C27.39 56.11 27.47 55.24 27.64 53.5L27.69 53.05C27.73 52.55 27.76 52.3 27.69 52.07C27.61 51.84 27.46 51.66 27.14 51.29L26.85 50.95C25.73 49.64 25.17 48.99 25.37 48.36C25.56 47.73 26.38 47.55 28.02 47.18L28.45 47.08C28.91 46.97 29.14 46.92 29.33 46.78C29.52 46.64 29.64 46.42 29.88 45.99L30.1 45.6C30.94 44.09 31.36 43.33 32 43.33C32.63 43.33 33.05 44.09 33.89 45.6L34.11 45.99Z" stroke="#CCBE43" stroke-opacity="1.000000" stroke-width="1.500000"/>
	</g>
	<g clip-path="url(#clip206_1879)">
		<path d="M54.1 45.6C54.94 44.09 55.36 43.33 56 43.33C56.63 43.33 57.05 44.09 57.89 45.6L58.11 45.99C58.35 46.42 58.47 46.64 58.66 46.78C58.85 46.92 59.08 46.97 59.54 47.08L59.97 47.18C61.61 47.55 62.43 47.73 62.62 48.36C62.82 48.99 62.26 49.64 61.14 50.95L60.85 51.29C60.53 51.66 60.38 51.84 60.3 52.07C60.23 52.3 60.26 52.55 60.31 53.05L60.35 53.5C60.52 55.24 60.6 56.11 60.09 56.5C59.58 56.89 58.81 56.54 57.28 55.83L56.88 55.65C56.44 55.45 56.23 55.34 56 55.34C55.76 55.34 55.55 55.45 55.11 55.65L54.71 55.83C53.18 56.54 52.41 56.89 51.9 56.5C51.39 56.11 51.47 55.24 51.64 53.5L51.69 53.05C51.73 52.55 51.76 52.3 51.69 52.07C51.61 51.84 51.46 51.66 51.14 51.29L50.85 50.95C49.73 49.64 49.17 48.99 49.37 48.36C49.56 47.73 50.38 47.55 52.02 47.18L52.45 47.08C52.91 46.97 53.14 46.92 53.33 46.78C53.52 46.64 53.64 46.42 53.88 45.99L54.1 45.6Z" fill="#CCBE43" fill-opacity="1.000000" fill-rule="nonzero"/>
		<path d="M58.11 45.99C58.35 46.42 58.47 46.64 58.66 46.78C58.85 46.92 59.08 46.97 59.54 47.08L59.97 47.18C61.61 47.55 62.43 47.73 62.62 48.36C62.82 48.99 62.26 49.64 61.14 50.95L60.85 51.29C60.53 51.66 60.38 51.84 60.3 52.07C60.23 52.3 60.26 52.55 60.31 53.05L60.35 53.5C60.52 55.24 60.6 56.11 60.09 56.5C59.58 56.89 58.81 56.54 57.28 55.83L56.88 55.65C56.44 55.45 56.23 55.34 56 55.34C55.76 55.34 55.55 55.45 55.11 55.65L54.71 55.83C53.18 56.54 52.41 56.89 51.9 56.5C51.39 56.11 51.47 55.24 51.64 53.5L51.69 53.05C51.73 52.55 51.76 52.3 51.69 52.07C51.61 51.84 51.46 51.66 51.14 51.29L50.85 50.95C49.73 49.64 49.17 48.99 49.37 48.36C49.56 47.73 50.38 47.55 52.02 47.18L52.45 47.08C52.91 46.97 53.14 46.92 53.33 46.78C53.52 46.64 53.64 46.42 53.88 45.99L54.1 45.6C54.94 44.09 55.36 43.33 56 43.33C56.63 43.33 57.05 44.09 57.89 45.6L58.11 45.99Z" stroke="#CCBE43" stroke-opacity="1.000000" stroke-width="1.500000"/>
	</g>
	<g clip-path="url(#clip206_1880)">
		<path d="M78.1 45.6C78.94 44.09 79.36 43.33 80 43.33C80.63 43.33 81.05 44.09 81.89 45.6L82.11 45.99C82.35 46.42 82.47 46.64 82.66 46.78C82.85 46.92 83.08 46.97 83.54 47.08L83.97 47.18C85.61 47.55 86.43 47.73 86.62 48.36C86.82 48.99 86.26 49.64 85.14 50.95L84.85 51.29C84.53 51.66 84.38 51.84 84.3 52.07C84.23 52.3 84.26 52.55 84.31 53.05L84.35 53.5C84.52 55.24 84.6 56.11 84.09 56.5C83.58 56.89 82.81 56.54 81.28 55.83L80.88 55.65C80.44 55.45 80.23 55.34 80 55.34C79.76 55.34 79.55 55.45 79.11 55.65L78.71 55.83C77.18 56.54 76.41 56.89 75.9 56.5C75.39 56.11 75.47 55.24 75.64 53.5L75.69 53.05C75.73 52.55 75.76 52.3 75.69 52.07C75.61 51.84 75.46 51.66 75.14 51.29L74.85 50.95C73.73 49.64 73.17 48.99 73.37 48.36C73.56 47.73 74.38 47.55 76.02 47.18L76.45 47.08C76.91 46.97 77.14 46.92 77.33 46.78C77.52 46.64 77.64 46.42 77.88 45.99L78.1 45.6Z" fill="#CCBE43" fill-opacity="1.000000" fill-rule="nonzero"/>
		<path d="M82.11 45.99C82.35 46.42 82.47 46.64 82.66 46.78C82.85 46.92 83.08 46.97 83.54 47.08L83.97 47.18C85.61 47.55 86.43 47.73 86.62 48.36C86.82 48.99 86.26 49.64 85.14 50.95L84.85 51.29C84.53 51.66 84.38 51.84 84.3 52.07C84.23 52.3 84.26 52.55 84.31 53.05L84.35 53.5C84.52 55.24 84.6 56.11 84.09 56.5C83.58 56.89 82.81 56.54 81.28 55.83L80.88 55.65C80.44 55.45 80.23 55.34 80 55.34C79.76 55.34 79.55 55.45 79.11 55.65L78.71 55.83C77.18 56.54 76.41 56.89 75.9 56.5C75.39 56.11 75.47 55.24 75.64 53.5L75.69 53.05C75.73 52.55 75.76 52.3 75.69 52.07C75.61 51.84 75.46 51.66 75.14 51.29L74.85 50.95C73.73 49.64 73.17 48.99 73.37 48.36C73.56 47.73 74.38 47.55 76.02 47.18L76.45 47.08C76.91 46.97 77.14 46.92 77.33 46.78C77.52 46.64 77.64 46.42 77.88 45.99L78.1 45.6C78.94 44.09 79.36 43.33 80 43.33C80.63 43.33 81.05 44.09 81.89 45.6L82.11 45.99Z" stroke="#CCBE43" stroke-opacity="1.000000" stroke-width="1.500000"/>
	</g>
	<g clip-path="url(#clip206_1881)">
		<path d="M102.1 45.6C102.94 44.09 103.36 43.33 104 43.33C104.63 43.33 105.05 44.09 105.89 45.6L106.11 45.99C106.35 46.42 106.47 46.64 106.66 46.78C106.85 46.92 107.08 46.97 107.55 47.08L107.97 47.18C109.61 47.55 110.43 47.73 110.62 48.36C110.82 48.99 110.26 49.64 109.14 50.95L108.85 51.29C108.54 51.66 108.38 51.84 108.31 52.07C108.23 52.3 108.26 52.55 108.31 53.05L108.35 53.5C108.52 55.24 108.6 56.11 108.09 56.5C107.58 56.89 106.81 56.54 105.28 55.83L104.88 55.65C104.44 55.45 104.23 55.34 104 55.34C103.76 55.34 103.55 55.45 103.11 55.65L102.71 55.83C101.18 56.54 100.41 56.89 99.9 56.5C99.39 56.11 99.47 55.24 99.64 53.5L99.69 53.05C99.73 52.55 99.76 52.3 99.69 52.07C99.61 51.84 99.46 51.66 99.14 51.29L98.85 50.95C97.73 49.64 97.17 48.99 97.37 48.36C97.56 47.73 98.38 47.55 100.02 47.18L100.45 47.08C100.91 46.97 101.15 46.92 101.33 46.78C101.52 46.64 101.64 46.42 101.88 45.99L102.1 45.6Z" fill="#CCBE43" fill-opacity="1.000000" fill-rule="nonzero"/>
		<path d="M106.11 45.99C106.35 46.42 106.47 46.64 106.66 46.78C106.85 46.92 107.08 46.97 107.55 47.08L107.97 47.18C109.61 47.55 110.43 47.73 110.62 48.36C110.82 48.99 110.26 49.64 109.14 50.95L108.85 51.29C108.54 51.66 108.38 51.84 108.31 52.07C108.23 52.3 108.26 52.55 108.31 53.05L108.35 53.5C108.52 55.24 108.6 56.11 108.09 56.5C107.58 56.89 106.81 56.54 105.28 55.83L104.88 55.65C104.44 55.45 104.23 55.34 104 55.34C103.76 55.34 103.55 55.45 103.11 55.65L102.71 55.83C101.18 56.54 100.41 56.89 99.9 56.5C99.39 56.11 99.47 55.24 99.64 53.5L99.69 53.05C99.73 52.55 99.76 52.3 99.69 52.07C99.61 51.84 99.46 51.66 99.14 51.29L98.85 50.95C97.73 49.64 97.17 48.99 97.37 48.36C97.56 47.73 98.38 47.55 100.02 47.18L100.45 47.08C100.91 46.97 101.15 46.92 101.33 46.78C101.52 46.64 101.64 46.42 101.88 45.99L102.1 45.6C102.94 44.09 103.36 43.33 104 43.33C104.63 43.33 105.05 44.09 105.89 45.6L106.11 45.99Z" stroke="#CCBE43" stroke-opacity="1.000000" stroke-width="1.500000"/>
	</g>
</svg>
