<svg width="24.000000" height="24.000000" viewBox="0 0 24 24" fill="none" xmlns="http://www.w3.org/2000/svg" xmlns:xlink="http://www.w3.org/1999/xlink">
	<desc>
			Created with Pixso.
	</desc>
	<defs/>
	<path id="youtube" d="M22.92 6.39C22.63 5.38 21.91 4.66 20.91 4.38C19.18 3.95 11.85 3.95 11.85 3.95C11.85 3.95 4.66 3.95 2.8 4.38C1.79 4.66 1.07 5.38 0.78 6.39C0.5 8.26 0.5 12 0.5 12C0.5 12 0.5 15.73 0.93 17.6C1.21 18.61 1.93 19.33 2.94 19.61C4.66 20.05 12 20.05 12 20.05C12 20.05 19.18 20.05 21.05 19.61C22.06 19.33 22.78 18.61 23.06 17.6C23.5 15.73 23.5 12 23.5 12C23.5 12 23.5 8.26 22.92 6.39ZM9.69 15.45L9.69 8.55L15.73 12L9.69 15.45Z" fill="#FAFAFA" fill-opacity="1.000000" fill-rule="nonzero"/>
</svg>
